
        <svg xmlns="http://www.w3.org/2000/svg" xmlns:xlink="http://www.w3.org/1999/xlink" version="1.1" width="3234.830567709481" 
        height="1561.6232752680478" viewBox="0 0 3234.830567709481 1561.6232752680478">
			<rect fill="#122d42" width="3234.830567709481" height="1561.6232752680478"/>
			<g transform="scale(11.741528385474043) translate(10, 10)">
				<defs id="SvgjsDefs1042"></defs><g id="SvgjsG1043" featureKey="sloganFeature-0" transform="matrix(1.2244897323665629,0,0,1.2244897323665629,40.00000014597055,88.3142871823324)" fill="#3dd2cc"><path d="M4.7 10.62 l0 1.88 l-2.82 0 l0 7.46 l-1.88 0 l0 -14.24 l4.66 0 l0 1.9 l-2.78 0 l0 3 l2.82 0 z M7.6 5.68 l0 14.24 l-1.9 0 l0 -14.24 l1.9 0 z M13.239999999999998 16.72 l0.08 -11.08 l1.92 0 l-0.12 14.44 l-2.98 0 l-1.62 -11.18 l0 11.18 l-1.92 0 l0 -14.44 l3.1 0 z M18.740000000000002 20.02 l-2.5 0 l0 -14.26 l2.5 0 c1.7 0 3.06 1.38 3.06 3.08 l0 8.1 c0 0.82 -0.32 1.6 -0.9 2.18 s-1.34 0.9 -2.16 0.9 z M18.14 7.68 l0 10.42 l0.6 0 c0.3 0 0.6 -0.12 0.82 -0.34 s0.34 -0.5 0.34 -0.82 l0 -8.1 c0 -0.64 -0.52 -1.16 -1.16 -1.16 l-0.6 0 z M33.88 5.720000000000001 l-2.68 8.68 l0 5.6 l-1.94 0 l0 -5.62 l-2.46 -8.66 l2 0 l1.46 5.14 l1.6 -5.14 l2.02 0 z M37.580000000000005 20.02 c-1.5 0 -2.7 -1.22 -2.7 -2.7 l0 -8.98 c0 -1.48 1.2 -2.68 2.7 -2.68 c1.48 0 2.68 1.2 2.68 2.68 l0 8.98 c0 1.48 -1.2 2.7 -2.68 2.7 z M37.580000000000005 7.5600000000000005 c-0.44 0 -0.78 0.36 -0.78 0.78 l0 8.98 c0 0.44 0.34 0.78 0.78 0.78 c0.42 0 0.78 -0.34 0.78 -0.78 l0 -8.98 c0 -0.42 -0.36 -0.78 -0.78 -0.78 z M44.2 20.04 c-1.62 0 -2.94 -1.32 -2.94 -2.94 l0 -11.36 l1.9 0 l0 11.36 c0 0.58 0.46 1.06 1.04 1.06 s1.04 -0.48 1.04 -1.06 l0 -11.36 l1.9 0 l0 11.36 c0 1.62 -1.32 2.94 -2.94 2.94 z M53.620000000000005 20.04 l-2.04 0 l-1.1 -3.02 l-0.44 0 l0 3.02 l-1.9 0 l0 -14.32 l2.98 0 c1.32 0 2.38 1.06 2.38 2.38 l0 6.54 c0 0.86 -0.44 1.6 -1.12 2.02 z M50.040000000000006 7.619999999999999 l0 7.5 l1.08 0 c0.26 0 0.48 -0.22 0.48 -0.48 l0 -6.54 c0 -0.26 -0.22 -0.48 -0.48 -0.48 l-1.08 0 z M62.220000000000006 5.720000000000001 l1.9 0 l0 14.26 l-1.9 0 l0 -7.54 l-1.7 0 l0 7.54 l-1.9 0 l0 -14.26 l1.9 0 l0 4.84 l1.7 0 l0 -4.84 z M67.82000000000001 20.02 c-1.5 0 -2.7 -1.22 -2.7 -2.7 l0 -8.98 c0 -1.48 1.2 -2.68 2.7 -2.68 c1.48 0 2.68 1.2 2.68 2.68 l0 8.98 c0 1.48 -1.2 2.7 -2.68 2.7 z M67.82000000000001 7.5600000000000005 c-0.44 0 -0.78 0.36 -0.78 0.78 l0 8.98 c0 0.44 0.34 0.78 0.78 0.78 c0.42 0 0.78 -0.34 0.78 -0.78 l0 -8.98 c0 -0.42 -0.36 -0.78 -0.78 -0.78 z M77.3 5.68 l3.34 0 l0 14.28 l-1.88 0 l0 -11.3 l-1.78 11.34 l-0.74 0 l-0.18 -0.04 l-0.16 0.04 l-0.74 0 l-1.76 -11.34 l0 11.3 l-1.9 0 l0 -14.28 l3.36 0 l1.22 8.08 z M86.3 12.46 l-2.76 0 l0 5.64 l2.78 0 l0 1.9 l-4.68 0 l0 -14.28 l4.68 0 l0 1.9 l-2.78 0 l0 2.94 l2.76 0 l0 1.9 z M93.22 17 l0 2.98 l-1.9 0 l0 -14.26 l2.96 0 c1.32 0 2.38 1.08 2.38 2.4 l0 6.5 c0 1.32 -1.06 2.38 -2.38 2.38 l-1.06 0 z M93.22 7.619999999999999 l0 7.48 l1.06 0 c0.28 0 0.48 -0.2 0.48 -0.48 l0 -6.5 c0 -0.28 -0.2 -0.5 -0.48 -0.5 l-1.06 0 z M102.24000000000001 20 l-0.72 -4.94 l-2.02 0 l-0.66 4.94 l-1.92 0 l2.16 -14.3 l2.58 0 l2.5 14.3 l-1.92 0 z M99.76 13.16 l1.48 0 l-0.76 -5.2 z M107.43999999999998 20.16 l-0.44 0 c-1.4 0 -2.52 -1.12 -2.52 -2.52 l0 -9.64 c0 -1.4 1.12 -2.54 2.52 -2.54 l0.44 0 c1.4 0 2.52 1.14 2.52 2.54 l0 1.02 l-1.96 0 l0 -1.02 c0 -0.34 -0.24 -0.58 -0.56 -0.58 l-0.44 0 c-0.3 0 -0.58 0.24 -0.58 0.58 l0 9.64 c0 0.3 0.28 0.58 0.58 0.58 l0.44 0 c0.32 0 0.56 -0.28 0.56 -0.58 l0 -5.2 l-1.12 0 l0 -1.94 l3.08 0 l0 7.14 c0 1.4 -1.12 2.52 -2.52 2.52 z M115.61999999999999 12.46 l-2.76 0 l0 5.64 l2.78 0 l0 1.9 l-4.68 0 l0 -14.28 l4.68 0 l0 1.9 l-2.78 0 l0 2.94 l2.76 0 l0 1.9 z M124.23999999999998 5.720000000000001 l1.9 0 l0 14.26 l-1.9 0 l0 -7.54 l-1.7 0 l0 7.54 l-1.9 0 l0 -14.26 l1.9 0 l0 4.84 l1.7 0 l0 -4.84 z M131.79999999999998 12.46 l-2.76 0 l0 5.64 l2.78 0 l0 1.9 l-4.68 0 l0 -14.28 l4.68 0 l0 1.9 l-2.78 0 l0 2.94 l2.76 0 l0 1.9 z M138.29999999999998 20.04 l-2.04 0 l-1.1 -3.02 l-0.44 0 l0 3.02 l-1.9 0 l0 -14.32 l2.98 0 c1.32 0 2.38 1.06 2.38 2.38 l0 6.54 c0 0.86 -0.44 1.6 -1.12 2.02 z M134.72 7.619999999999999 l0 7.5 l1.08 0 c0.26 0 0.48 -0.22 0.48 -0.48 l0 -6.54 c0 -0.26 -0.22 -0.48 -0.48 -0.48 l-1.08 0 z M143.95999999999998 12.46 l-2.76 0 l0 5.64 l2.78 0 l0 1.9 l-4.68 0 l0 -14.28 l4.68 0 l0 1.9 l-2.78 0 l0 2.94 l2.76 0 l0 1.9 z"></path></g><g id="SvgjsG1044" featureKey="nameLeftFeature-0" transform="matrix(2.930800588250137,0,0,2.930800588250137,0,-5.588330882291096)" fill="#3dd2cc"><path d="M2.68 19.96 c-1.48 0 -2.68 -1.2 -2.68 -2.68 l0 -8.88 c0 -1.48 1.2 -2.68 2.68 -2.68 s2.68 1.2 2.68 2.68 l0 0.8 l-1.9 0 l0 -0.8 c0 -0.42 -0.36 -0.78 -0.78 -0.78 s-0.78 0.36 -0.78 0.78 l0 8.88 c0 0.42 0.36 0.78 0.78 0.78 s0.78 -0.36 0.78 -0.78 l0 -1.28 l1.9 0 l0 1.28 c0 1.48 -1.2 2.68 -2.68 2.68 z M10.6945 20 c-1.56 0 -2.84 -1.26 -2.84 -2.84 l0 -1.46 l1.9 0 l0 1.46 c0 0.52 0.42 0.94 0.94 0.94 s0.92 -0.42 0.92 -0.94 l0 -11.5 l1.92 0 l0 11.5 c0 1.58 -1.28 2.84 -2.84 2.84 z M22.948999999999998 5.68 l0 1.92 l-2.38 0 l0 12.42 l-1.92 0 l0 -12.42 l-2.62 0 l0 -1.92 l6.92 0 z"></path></g><g id="SvgjsG1045" featureKey="inlineSymbolFeature-0" transform="matrix(0.7363646578211807,0,0,0.7363646578211807,82.58186928661594,-4.418187946927084)" fill="#3dd2cc"><g xmlns="http://www.w3.org/2000/svg" transform="translate(0,-952.36218)"><path style="text-indent:0;text-transform:none;direction:ltr;block-progression:tb;baseline-shift:baseline;color:;enable-background:accumulate;" d="m 13.540789,1013.168 c -4.1612604,0 -7.5408665,3.3922 -7.5408665,7.5693 0,4.1771 3.3796061,7.605 7.5408665,7.605 0.813543,0 1.613976,-0.1361 2.383228,-0.3928 12.281102,18.8997 36.649842,23.2608 54.493227,13.032 0.521221,-0.2991 0.724607,-1.0475 0.426614,-1.571 -0.297992,-0.5234 -1.043503,-0.7275 -1.565078,-0.4284 -16.772953,9.6153 -39.67122,5.6292 -51.327282,-12.1037 1.894251,-1.3812 3.130157,-3.6195 3.130157,-6.1411 0,-4.1771 -3.379252,-7.5693 -7.540866,-7.5693 z" fill="#3dd2cc" fill-opacity="1" fill-rule="evenodd" stroke="none" marker="none" visibility="visible" display="inline" overflow="visible"></path><path style="text-indent:0;text-transform:none;direction:ltr;block-progression:tb;baseline-shift:baseline;color:;enable-background:accumulate;" d="m 70.417244,970.57299 c -0.951023,0.12132 -1.237323,1.69026 -0.391181,2.14225 13.429842,8.21899 20.928543,24.30182 17.64248,40.55986 -0.392953,-0.067 -0.80185,-0.107 -1.209331,-0.107 -4.161259,0 -7.540866,3.3922 -7.540866,7.5692 0,4.1771 3.379607,7.605 7.540866,7.605 4.16126,0 7.540866,-3.4279 7.540866,-7.605 0,-2.9516 -1.686968,-5.51 -4.161614,-6.748 3.607441,-17.29107 -4.331338,-34.48188 -18.638503,-43.23773 -0.189921,-0.12122 -0.415984,-0.18423 -0.64063,-0.17852 -0.04784,-0.003 -0.09425,-0.003 -0.142087,0 z" fill="#3dd2cc" fill-opacity="1" fill-rule="evenodd" stroke="none" marker="none" visibility="visible" display="inline" overflow="visible"></path><path style="text-indent:0;text-transform:none;direction:ltr;block-progression:tb;baseline-shift:baseline;color:;enable-background:accumulate;" d="m 50.000001,958.36218 c -4.012441,0 -7.27441,3.16987 -7.505079,7.14083 -17.197086,3.19362 -29.727637,16.85266 -32.5821254,33.06201 a 1.1383515,1.1426463 0 1 0 2.2407874,0.39275 c 2.681221,-15.22486 14.388307,-28.07084 30.518858,-31.1697 0.826653,3.28539 3.802677,5.71266 7.327559,5.71266 4.161259,0 7.540866,-3.39219 7.540866,-7.56928 0,-4.17708 -3.379607,-7.56927 -7.540866,-7.56927 z" fill="#3dd2cc" fill-opacity="1" fill-rule="evenodd" stroke="none" marker="none" visibility="visible" display="inline" overflow="visible"></path></g></g><g id="SvgjsG1046" featureKey="nameRightFeature-0" transform="matrix(2.8770950481564777,0,0,2.8770950481564777,156.19180079694388,-4.478774432150901)" fill="#3dd2cc"><path d="M7.9945 20.02 l-2.5 0 l0 -14.26 l2.5 0 c1.7 0 3.06 1.38 3.06 3.08 l0 8.1 c0 0.82 -0.32 1.6 -0.9 2.18 s-1.34 0.9 -2.16 0.9 z M7.394500000000001 7.68 l0 10.42 l0.6 0 c0.3 0 0.6 -0.12 0.82 -0.34 s0.34 -0.5 0.34 -0.82 l0 -8.1 c0 -0.64 -0.52 -1.16 -1.16 -1.16 l-0.6 0 z M18.209000000000003 12.46 l-2.76 0 l0 5.64 l2.78 0 l0 1.9 l-4.68 0 l0 -14.28 l4.68 0 l0 1.9 l-2.78 0 l0 2.94 l2.76 0 l0 1.9 z M24.703500000000002 20 l-1.98 0 l-2 -14.28 l1.92 0 l1.04 7.36 l0.96 -7.36 l1.92 0 z M31.798000000000002 20.12 c-1.52 0 -2.74 -1.24 -2.74 -2.74 l0 -2.18 l1.94 0 l0 2.18 c0 0.44 0.36 0.8 0.8 0.8 s0.78 -0.36 0.78 -0.8 l0 -1.9 l-3.52 -4.86 l0 -2.48 c0 -1.52 1.22 -2.76 2.74 -2.76 c1.5 0 2.72 1.24 2.72 2.76 l0 2.16 l-1.94 0 l0 -2.16 c0 -0.46 -0.34 -0.8 -0.78 -0.8 s-0.8 0.34 -0.8 0.8 l0 1.82 l3.52 4.86 l0 2.56 c0 1.5 -1.22 2.74 -2.72 2.74 z"></path></g>
			</g>
		</svg>
	